#!OML:ASF H:\Terrain\Patient Classification 1\PLAYGROUND\JustinFriday\JustinFriday.ASF
:FULLY-SPECIFIED
:DEGREES
898
root -16.3594 30.4333 -10.8347 349.241 71.51 -38.8735
lowerback 41.4454 0.552034 0.181197
upperback 12.0854 1.91804 -0.165762
thorax -6.30882 1.33991 -1.06761
lowerneck 18.2122 -18.3742 -3.96742
upperneck -31.8733 -19.0268 35.1129
head -8.58867 -13.5766 15.8687
rclavicle -3.18055e-015 1.66979e-014
rhumerus 25.2092 18.9753 -69.0725
rradius 83.8116
rwrist 21.2807
rhand -13.5809 -7.44912
rfingers 7.12502
rthumb 12.5332 -37.0532
lclavicle -3.18055e-015 1.66979e-014
lhumerus 7.1256 -16.8503 58.1543
lradius 86.3764
lwrist -22.9907
lhand -22.9651 -14.536
lfingers 7.12502
lthumb 3.47677 15.4154
rfemur -44.2933 0.786579 27.8295
rtibia 42.7444
rfoot -32.1899 -4.86372
rtoes -3.28123
lfemur -48.1759 -5.05048 -7.90759
ltibia 56.561
lfoot -27.6623 -6.66821
ltoes 19.799
899
root -16.4394 30.4422 -10.8687 351.485 71.5097 -36.031
lowerback 42.2149 0.984396 -1.0566
upperback 11.981 1.99692 0.221099
thorax -6.68412 1.34536 -0.0701444
lowerneck 19.0507 -18.3312 -5.41078
upperneck -32.5753 -19.2722 35.6316
head -8.61844 -13.6819 16.4718
rclavicle -2.8625e-014 -5.1684e-015
rhumerus 26.1759 18.9698 -68.65
rradius 83.6898
rwrist 21.1977
rhand -12.7212 -8.0232
rfingers 7.12502
rthumb 13.3619 -37.5748
lclavicle -2.8625e-014 -5.1684e-015
lhumerus 7.24371 -16.444 58.5936
lradius 86.3548
lwrist -22.5894
lhand -22.8493 -14.5363
lfingers 7.12502
lthumb 3.58861 15.4133
rfemur -44.2191 0.827965 26.8878
rtibia 42.9213
rfoot -32.2504 -3.69397
rtoes -3.67448
lfemur -47.9964 -4.684 -9.11297
ltibia 56.6442
lfoot -27.6802 -6.77868
ltoes 20.0414
900
root -16.52 30.4411 -10.9072 352.307 71.269 -34.8185
lowerback 42.8863 1.15349 -1.30192
upperback 11.8304 2.10435 0.367153
thorax -7.05354 1.38524 0.15064
lowerneck 19.4238 -18.0141 -6.537
upperneck -32.4276 -19.0333 36.3456
head -8.41944 -13.5797 16.9424
rclavicle -5.40694e-014 3.06128e-014
rhumerus 26.633 18.7979 -68.2677
rradius 83.4252
rwrist 20.9094
rhand -12.7436 -8.14701
rfingers 7.12502
rthumb 13.3404 -37.7
lclavicle -5.40694e-014 3.06128e-014
lhumerus 7.15364 -16.4552 58.3836
lradius 87.3994
lwrist -21.8596
lhand -22.2479 -14.0914
lfingers 7.12502
lthumb 4.16935 15.8475
rfemur -44.3814 0.969215 26.5094
rtibia 43.3002
rfoot -32.3701 -0.394894
rtoes 6.67696
lfemur -47.9261 -4.20787 -9.71293
ltibia 56.6344
lfoot -27.554 -6.64102
ltoes 19.8043
901
root -16.6044 30.3955 -10.9415 352.46 70.6355 -34.4978
lowerback 43.1222 1.13516 -0.987893
upperback 11.8845 2.18405 0.17088
thorax -7.04542 1.43147 -0.254235
lowerneck 18.9136 -18.0807 -5.88405
upperneck -32.3647 -18.9954 35.922
head -8.47449 -13.5362 16.6015
rclavicle 0 7.55382e-015
rhumerus 27.5263 18.2155 -67.8708
rradius 83.4913
rwrist 20.1492
rhand -12.3569 -8.43493
rfingers 7.12502
rthumb 13.7131 -37.9631
lclavicle 0 7.55382e-015
lhumerus 7.79026 -16.0555 58.001
lradius 87.4203
lwrist -21.4007
lhand -21.8792 -13.9545
lfingers 7.12502
lthumb 4.52537 15.9772
rfemur -44.9326 1.19547 26.6347
rtibia 44.0146
rfoot -31.8085 -2.1375
rtoes 1.30688
lfemur -48.1107 -2.76486 -10.6234
ltibia 56.4292
lfoot -27.6553 -1.51482
ltoes 4.55895
902
root -16.6901 30.4146 -10.9966 355.148 69.8646 -31.4214
lowerback 43.3756 1.60028 -1.90064
upperback 11.9974 2.37037 0.199603
thorax -7.00861 1.50508 0.164376
lowerneck 19.1657 -18.0109 -7.26257
upperneck -32.5754 -19.3836 35.9865
head -8.25532 -13.6084 16.7927
rclavicle -1.90833e-014 -2.34566e-014
rhumerus 28.8239 18.1633 -67.7989
rradius 83.0194
rwrist 20.3864
rhand -11.6639 -8.52355
rfingers 7.12502
rthumb 14.3808 -38.0054
lclavicle -1.90833e-014 -2.34566e-014
lhumerus 8.5351 -15.3799 58.4742
lradius 87.0301
lwrist -21.1525
lhand -21.5222 -13.5918
lfingers 7.12502
lthumb 4.87011 16.3322
rfemur -45.3229 1.03343 26.022
rtibia 44.5081
rfoot -31.8489 -1.95112
rtoes 0.308796
lfemur -48.0669 -2.47242 -11.326
ltibia 56.5566
lfoot -27.362 -3.32239
ltoes 10.3353
903
root -16.7709 30.3591 -11.0645 357.683 70.1909 -28.5341
lowerback 43.4379 1.32766 -2.1576
upperback 12.2444 1.99126 0.314302
thorax -6.75043 1.3338 0.57619
lowerneck 18.135 -17.9591 -7.99731
upperneck -32.112 -19.5184 36.4115
head -7.67482 -13.6169 16.719
rclavicle 9.78021e-014 -5.60573e-014
rhumerus 30.1709 17.9147 -67.0086
rradius 82.8019
rwrist 20.123
rhand -10.8841 -8.42225
rfingers 7.12502
rthumb 15.1321 -37.849
lclavicle 9.78021e-014 -5.60573e-014
lhumerus 9.05301 -14.6634 58.9397
lradius 87.2367
lwrist -20.8556
lhand -21.2357 -12.9704
lfingers 7.12502
lthumb 5.14675 16.9471
rfemur -45.9043 0.294436 25.0056
rtibia 45.189
rfoot -31.833 -2.33581
rtoes -0.336475
lfemur -48.3163 -2.11015 -13.2269
ltibia 56.5476
lfoot -27.3706 -0.716305
ltoes 2.39418
904
root -16.8581 30.3335 -11.079 355.609 69.9715 -30.2903
lowerback 43.4254 1.34537 -1.888
upperback 12.6113 2.23399 1.01921
thorax -6.37058 1.42908 1.0983
lowerneck 18.1964 -17.71 -9.51928
upperneck -32.7761 -19.4313 37.1819
head -7.55521 -13.5512 17.3325
rclavicle -1.27222e-014 -8.74653e-015
rhumerus 31.678 18.1903 -65.5376
rradius 82.4145
rwrist 19.52
rhand -10.7643 -8.34162
rfingers 7.12502
rthumb 15.2475 -37.7597
lclavicle -1.27222e-014 -8.74653e-015
lhumerus 9.3191 -13.9527 59.3041
lradius 87.7425
lwrist -20.4226
lhand -21.1723 -12.3808
lfingers 7.12502
lthumb 5.208 17.5352
rfemur -45.773 1.29253 25.555
rtibia 45.3867
rfoot -31.4124 -4.57027
rtoes -2.9608
lfemur -48.4555 -1.75381 -12.5021
ltibia 57.0411
lfoot -27.458 -1.90303
ltoes 5.39372
905
root -16.9445 30.3046 -11.1228 354.44 69.5333 -31.3001
lowerback 43.5059 1.53286 -1.9076
upperback 12.798 2.56067 1.96668
thorax -6.24808 1.54243 1.98648
lowerneck 18.4184 -17.2747 -11.4367
upperneck -33.576 -19.278 37.5363
head -7.53248 -13.3427 17.9128
rclavicle -3.49861e-014 2.74323e-014
rhumerus 32.7183 18.1898 -63.2862
rradius 82.7904
rwrist 18.6268
rhand -10.4688 -8.27935
rfingers 7.12502
rthumb 15.5322 -37.6755
lclavicle -3.49861e-014 2.74323e-014
lhumerus 9.72559 -12.7517 60.8004
lradius 87.1607
lwrist -20.2637
lhand -20.6288 -13.0889
lfingers 7.12502
lthumb 5.73274 16.8136
rfemur -45.9844 3.26366 25.3999
rtibia 45.8071
rfoot -30.7558 -8.20683
rtoes -7.81763
lfemur -48.7786 -1.32468 -12.13
ltibia 57.4491
lfoot -27.435 -1.56966
ltoes 4.09173
906
root -17.0281 30.3136 -11.1962 353.21 69.0026 -32.6784
lowerback 43.4167 1.57919 -1.56853
upperback 12.9239 2.85783 2.94993
thorax -6.15354 1.64448 2.74437
lowerneck 17.8053 -17.6164 -14.2397
upperneck -33.3587 -20.6325 38.397
head -6.32018 -13.8405 18.079
rclavicle -5.56597e-015 -4.96962e-015
rhumerus 32.676 19.4659 -57.6808
rradius 86.5816
rwrist 15.7826
rhand -10.8546 -11.3598
rfingers 7.12502
rthumb 15.1605 -40.7845
lclavicle -5.56597e-015 -4.96962e-015
lhumerus 9.40977 -12.227 61.7185
lradius 87.9115
lwrist -19.3781
lhand -20.0973 -12.9143
lfingers 7.12502
lthumb 6.24587 16.9736
rfemur -46.6267 0.846856 26.981
rtibia 45.969
rfoot -30.8666 -3.56797
rtoes -2.89503
lfemur -48.9785 -1.83793 -10.4582
ltibia 58.0874
lfoot -26.9867 -8.20816
ltoes 23.3849
907
root -17.1106 30.2553 -11.2728 352.882 68.8562 -33.1038
lowerback 43.293 0.949189 -0.278751
upperback 12.8958 2.53478 2.17652
thorax -6.04893 1.54892 1.39515
lowerneck 17.6236 -17.3724 -12.1522
upperneck -33.3678 -19.6164 37.703
head -7.05927 -13.4262 17.7825
rclavicle 4.77083e-015 4.51241e-014
rhumerus 34.2257 17.9997 -61.5512
rradius 83.754
rwrist 17.7666
rhand -9.57668 -9.44283
rfingers 7.12502
rthumb 16.3913 -38.7702
lclavicle 4.77083e-015 4.51241e-014
lhumerus 10.1174 -12.6365 60.2181
lradius 88.2127
lwrist -18.7267
lhand -20.1433 -12.0094
lfingers 7.12502
lthumb 6.20149 17.8799
rfemur -47.6915 -2.4056 28.3537
rtibia 46.5144
rfoot -30.4574 3.63663
rtoes 7.69315
lfemur -50.099 -0.654511 -11.5272
ltibia 58.3861
lfoot -27.669 -2.16339
ltoes 5.84867
908
root -17.1965 30.2362 -11.3056 354.117 69.134 -31.4569
lowerback 43.1081 0.699625 -0.321762
upperback 13.1319 2.20741 1.81194
thorax -5.70783 1.42151 1.16886
lowerneck 17.4971 -17.3959 -12.1761
upperneck -33.3771 -19.5551 38.175
head -6.96991 -13.4648 17.9657
rclavicle -1.19271e-014 1.43125e-014
rhumerus 35.3336 17.0388 -62.7306
rradius 82.5146
rwrist 18.0256
rhand -9.14442 -8.15989
rfingers 7.12502
rthumb 16.8074 -37.4525
lclavicle -1.19271e-014 1.43125e-014
lhumerus 10.8631 -12.3218 59.6345
lradius 88.1968
lwrist -18.5283
lhand -20.1055 -11.5528
lfingers 7.12502
lthumb 6.23797 18.3354
rfemur -47.7116 0.57989 26.2415
rtibia 46.8499
rfoot -30.85 -0.759061
rtoes 5.41978
lfemur -50.3988 -0.868703 -12.2866
ltibia 58.7358
lfoot -27.7466 -1.99324
ltoes 5.36691
909
root -17.2769 30.1967 -11.375 355.58 69.3035 -29.7426
lowerback 42.854 0.417062 -0.270183
upperback 13.3776 1.89265 1.60811
thorax -5.34626 1.29374 1.05929
lowerneck 17.4702 -17.4838 -11.3258
upperneck -34.2963 -19.2887 38.089
head -7.49079 -13.413 18.072
rclavicle -1.82882e-014 -2.76311e-014
rhumerus 36.0535 16.8045 -62.7978
rradius 82.5167
rwrist 18.1219
rhand -8.70528 -8.04881
rfingers 7.12502
rthumb 17.2301 -37.3049
lclavicle -1.82882e-014 -2.76311e-014
lhumerus 11.7117 -11.7184 59.4611
lradius 88.0737
lwrist -18.3202
lhand -19.8925 -11.2562
lfingers 7.12502
lthumb 6.44355 18.6258
rfemur -48.3173 0.368016 25.5888
rtibia 47.5963
rfoot -30.9897 -4.60377
rtoes -3.54957
lfemur -50.8585 -1.18504 -13.1142
ltibia 59.0395
lfoot -27.6342 -1.58974
ltoes 4.88063
910
root -17.3492 30.2091 -11.4943 356.094 69.3007 -29.5377
lowerback 42.3448 -0.25777 0.844268
upperback 13.5026 1.49205 1.3641
thorax -5.02874 1.14689 0.395342
lowerneck 15.3902 -15.3474 -14.3244
upperneck -32.9882 -16.5565 39.6125
head -6.80222 -11.7838 19.1043
rclavicle -7.95139e-016 6.89783e-014
rhumerus 36.6713 16.5356 -62.5927
rradius 82.7085
rwrist 18.1785
rhand -8.46606 -8.35416
rfingers 7.12502
rthumb 17.4603 -37.59
lclavicle -7.95139e-016 6.89783e-014
lhumerus 12.7894 -10.9858 59.1028
lradius 87.6735
lwrist -17.7769
lhand -19.7099 -10.7233
lfingers 7.12502
lthumb 6.61984 19.1532
rfemur -49.1136 1.12151 24.9361
rtibia 47.947
rfoot -30.6374 -6.21909
rtoes -5.95673
lfemur -51.6522 -2.46684 -12.2448
ltibia 59.667
lfoot -26.7512 -7.42933
ltoes 23.5735
